<svg width="83" height="83" viewBox="0 0 83 83" fill="none" xmlns="http://www.w3.org/2000/svg">
<g clip-path="url(#clip0_617_3357)">
<path d="M47.3928 11.0808C48.3568 10.0428 49.9796 11.4267 49.1483 12.6219C48.317 13.8171 46.3316 12.222 47.3928 11.0808Z" fill="black"/>
<path d="M55.4805 56.1344C55.8077 56.3725 56.7717 54.6651 57.8374 55.6356C59.1463 56.8263 56.7938 58.4349 55.6485 58.5383C54.0124 58.6865 53.1767 56.9701 53.0396 55.5548C52.7611 52.6791 53.442 49.745 53.526 46.8828C48.2817 51.9916 47.3708 59.374 49.0865 66.3475C49.2368 66.9496 49.8559 69.2007 50.13 69.5826C50.2848 69.8028 50.4086 69.8702 50.6739 69.8522L62.644 69.7713C64.2491 62.326 68.0254 55.6177 69.6748 48.1724C70.6874 43.5938 71.4657 35.9733 69.1044 31.7991C67.8574 29.5929 65.4386 27.2384 63.1215 26.2364C65.5492 30.0826 67.455 34.14 66.8359 38.8489C66.2965 42.9557 63.8998 48.5094 61.7906 52.0545C61.5474 52.4589 60.9283 53.6137 60.6895 53.8653C60.0174 54.5797 58.8058 54.4 58.6377 53.3351C58.5316 52.6566 60.1943 50.3201 60.6055 49.5293C63.608 43.751 66.208 37.8874 63.4222 31.4621C62.8253 30.0871 60.6055 26.9509 60.5259 25.8006C60.4021 24.0303 61.8348 23.5675 63.294 23.8281C67.4417 24.5694 71.7708 30.7746 72.5004 34.7915C74.813 47.5433 68.5516 56.1074 65.5182 67.4034C65.1954 68.6121 65.1114 70.0993 64.8019 71.1373C64.709 71.4518 64.5233 71.7169 64.258 71.9056L49.3783 72C48.5691 71.9191 48.1667 70.7464 47.8793 70.0544C44.6778 62.3171 45.5357 50.064 52.4781 44.5778C53.8754 43.4725 55.5645 43.3332 55.8077 45.4809C56.1924 48.9183 54.5873 52.6971 55.4849 56.1344H55.4805Z" fill="black"/>
<path d="M29.4665 56.1344C30.5808 53.4699 28.2195 46.7166 29.4002 44.5868C31.0363 41.6302 34.9143 47.2827 35.7765 48.6532C39.3539 54.3371 39.628 61.1848 37.8725 67.5696C37.6382 68.4189 36.6742 71.5866 35.9667 71.9101H20.6979C19.9241 71.4698 20.0125 70.0274 20.9411 69.8522L34.6755 69.7668C37.8991 62.2676 37.4967 52.9667 31.5846 46.9682C31.3104 46.7211 31.4077 47.5568 31.4166 47.6377C31.6288 50.109 32.668 55.6806 31.1822 57.6306C29.2189 60.2097 26.3181 56.6376 25.1109 55.038C22.0466 50.9627 17.7971 41.8639 17.9298 36.7371C18.0271 32.9718 19.9152 29.3457 21.8299 26.2454C18.9336 27.544 15.7631 30.851 14.9185 34.0052C13.1143 40.7496 15.228 48.9901 17.4345 55.402C18.4295 58.2911 20.1982 61.7509 20.9013 64.5951C21.3921 66.5901 19.5968 67.0305 18.8672 65.6735C15.2811 55.8738 10.501 45.5663 12.4511 34.796C13.2072 30.6353 16.2141 26.6723 19.8268 24.6189C21.3612 23.7472 24.4344 22.889 24.43 25.6613C24.43 26.7981 22.1085 30.1141 21.5248 31.4666C18.7523 37.8694 21.4187 44.2498 24.5626 49.9697C24.9473 50.6661 28.6573 56.723 29.4665 56.1344Z" fill="black"/>
<path d="M41.3393 27.1441C41.0872 24.9694 39.177 23.1361 38.1201 21.3298C34.5649 15.264 34.388 8.56009 39.8004 3.60855C42.2104 1.40238 42.8692 1.49224 45.2438 3.68494C46.1724 4.54315 48.6973 7.55361 48.4939 8.79823C48.4054 9.33742 47.667 9.78225 47.1496 9.68789C46.4863 9.56658 45.4207 7.28851 44.837 6.57409C44.5319 6.20564 42.856 4.5072 42.5287 4.45777C37.2313 7.99395 36.7316 13.597 39.4909 19.1102C40.2736 20.6783 41.4542 21.9634 42.3032 23.4866L42.6393 23.5899C44.0631 21.3074 45.4428 19.4876 46.3846 16.9085C46.7605 15.8796 46.7119 13.7048 48.3745 14.2081C48.6973 14.3069 49.1174 14.918 49.1395 15.2595C49.1837 15.938 47.919 19.2989 47.5476 20.0672C46.65 21.9319 43.6165 25.2794 43.6165 27.1396V34.3243C45.686 31.4261 48.3745 29.2424 51.6334 27.854C52.509 27.4811 55.5468 26.1241 55.9359 27.508C56.5771 29.7771 54.1053 34.7107 52.6416 36.4765C51.713 37.5953 47.9809 40.9473 46.619 40.9158C45.8717 40.9023 45.4074 39.9767 45.6373 39.2713C45.7788 38.8444 48.1755 37.5189 48.8034 37.0337C51.1735 35.187 52.7875 32.6393 53.5348 29.7007C49.4313 30.9184 45.5754 34.158 44.3152 38.4176C42.9709 42.9647 43.8995 48.1949 43.6165 52.9038C43.1036 54.2248 41.6709 54.1259 41.3525 52.733L41.3216 42.111C36.0993 40.6372 31.359 36.7147 29.7185 31.3542C28.3212 26.7846 29.1083 26.0387 33.3754 27.8046C35.6925 28.7616 37.8327 30.2714 39.6368 32.0103L41.3437 34.158C41.158 31.9384 41.5957 29.3053 41.3437 27.1396L41.3393 27.1441ZM41.012 39.6173C40.2338 34.8005 36.0463 31.0217 31.5846 29.7097C32.7343 34.5534 36.4752 38.0222 41.012 39.6173Z" fill="black"/>
<path d="M41.0121 39.6173C36.4796 38.0222 32.7343 34.5534 31.5846 29.7097C36.0463 31.0217 40.2338 34.805 41.0121 39.6173Z" fill="white"/>
</g>
<circle cx="41.5" cy="41.5" r="40.5" stroke="black" stroke-width="2"/>
<defs>
<clipPath id="clip0_617_3357">
<rect width="61" height="70" fill="white" transform="translate(12 2)"/>
</clipPath>
</defs>
</svg>
