<svg width="27" height="19" viewBox="0 0 27 19" fill="none" xmlns="http://www.w3.org/2000/svg">
<g clip-path="url(#clip0_617_3575)">
<path d="M25.6076 19H1.39238C1.02915 19 0.696188 18.8791 0.454036 18.6375C0.454036 18.6375 0.454036 18.6375 0.423767 18.6073C0.151345 18.3354 0 18.0031 0 17.6105V1.11761C0 0.755134 0.151345 0.392653 0.423767 0.120793C0.605381 -0.0604467 0.908072 -0.0604467 1.08969 0.120793L11.9865 10.9952C12.8341 11.841 14.1962 11.841 15.0437 10.9952L25.9103 0.151C26.0919 -0.0302401 26.3946 -0.0302401 26.5762 0.151C26.8487 0.42286 27 0.755134 27 1.14782V17.6407C27 18.0334 26.8487 18.3656 26.5762 18.6375C26.3341 18.9093 25.9709 19.0302 25.6076 19.0302V19ZM1.02915 17.9125C1.02915 17.9125 1.02915 17.9125 1.05942 17.9427C1.11996 18.0031 1.21076 18.0636 1.39238 18.0636H25.5774C25.5774 18.0636 25.8195 18.0031 25.9103 17.9427C26.0011 17.8521 26.0617 17.7313 26.0617 17.6105V1.29885L15.6794 11.6597C14.4686 12.868 12.5011 12.868 11.3206 11.6597L0.938341 1.29885V17.5803C0.938341 17.5803 0.96861 17.7917 1.05942 17.8823L1.02915 17.9125Z" fill="#B7B4B4"/>
<path d="M26.2433 0.936407H0.726459C0.484306 0.936407 0.272423 0.72496 0.272423 0.4531C0.272423 0.18124 0.484306 0 0.726459 0H26.2433C26.4854 0 26.6973 0.211447 26.6973 0.4531C26.6973 0.694754 26.4854 0.9062 26.2433 0.9062V0.936407Z" fill="#B7B4B4"/>
<path d="M26.2433 18.7282C26.2433 18.7282 26.0011 18.6678 25.9103 18.5772L17.0112 9.6662C16.8296 9.48496 16.8296 9.18289 17.0112 9.00165C17.1928 8.82041 17.4955 8.82041 17.6771 9.00165L26.5762 17.9126C26.7578 18.0939 26.7578 18.3959 26.5762 18.5772C26.4854 18.6678 26.3643 18.698 26.2433 18.698V18.7282Z" fill="#B7B4B4"/>
<path d="M0.75673 18.728C0.75673 18.728 0.514577 18.6676 0.42377 18.6072C0.242156 18.426 0.242156 18.1239 0.42377 17.9427L9.32287 9.03168C9.50449 8.85044 9.80718 8.85044 9.98879 9.03168C10.1704 9.21292 10.1704 9.51499 9.98879 9.69623L1.05942 18.6072C1.05942 18.6072 0.847537 18.7582 0.726461 18.7582L0.75673 18.728Z" fill="#B7B4B4"/>
</g>
<defs>
<clipPath id="clip0_617_3575">
<rect width="27" height="19" fill="white"/>
</clipPath>
</defs>
</svg>
