<svg width="35" height="36" viewBox="0 0 35 36" fill="none" xmlns="http://www.w3.org/2000/svg">
<g clip-path="url(#clip0_617_3585)">
<path d="M19.0972 0.0575029C41.796 2.28374 39.5253 37.098 16.5724 35.9737C-5.10998 34.9107 -5.76538 1.99549 16.0784 0.0575029C16.8951 -0.0140473 18.2865 -0.0222245 19.0972 0.0575029ZM22.5173 7.19822H17.7884C17.7259 7.19822 16.7882 7.5805 16.6309 7.65614C14.3743 8.74984 14.6647 11.988 14.6708 14.1345C14.5135 14.294 12.749 13.8279 12.4566 14.4391V18.0084H14.6708V28.7185L14.9733 29.0251H19.0992V18.0084H22.1181C22.2189 17.0885 22.5254 15.7107 22.5315 14.8357C22.5315 14.6067 22.4266 14.1325 22.2189 14.1325H19.0992C19.1436 13.1103 18.8673 11.9124 19.6014 11.0722H22.5194V7.19617L22.5173 7.19822Z" fill="#B7B4B4"/>
<path d="M22.5173 7.198V11.074H19.5993C18.8632 11.9142 19.1415 13.1121 19.0971 14.1343H22.2168C22.4225 14.1343 22.5294 14.6106 22.5294 14.8375C22.5233 15.7125 22.2188 17.0903 22.116 18.0103H19.0971V29.027H14.9712L14.6687 28.7203V18.0103H12.4545V14.4409C12.7489 13.8297 14.5134 14.2958 14.6687 14.1363C14.6627 11.9878 14.3743 8.75166 16.6288 7.65796C16.7861 7.58233 17.7238 7.20004 17.7864 7.20004H22.5153L22.5173 7.198Z" fill="#343232"/>
</g>
<defs>
<clipPath id="clip0_617_3585">
<rect width="35" height="36" fill="white"/>
</clipPath>
</defs>
</svg>
