<svg width="36" height="37" viewBox="0 0 36 37" fill="none" xmlns="http://www.w3.org/2000/svg">
<g clip-path="url(#clip0_617_3588)">
<path d="M19.4701 0C42.9915 2.35064 40.7116 38.1322 17.0802 36.9726C-5.28161 35.8741 -5.9268 1.9971 16.5698 0H19.468H19.4701ZM16.3209 8.25145C10.4976 8.39876 8.22798 9.33312 7.86701 15.6359C7.64503 19.5249 7.16166 26.5473 11.4602 28.1782C13.7754 29.0558 22.2479 29.0642 24.5797 28.1782C28.7704 26.5873 28.3575 20.051 28.1729 16.2651C28.0235 13.1695 27.7621 9.91395 24.393 8.75862C22.6255 8.15254 18.3436 8.19884 16.3209 8.24935V8.25145Z" fill="#B7B4B4"/>
<path d="M16.3206 8.25136C18.3433 8.20085 22.6253 8.15455 24.3928 8.76063C27.764 9.91596 28.0233 13.1715 28.1727 16.2671C28.3552 20.053 28.7701 26.5893 24.5795 28.1803C22.2477 29.0662 13.7731 29.0578 11.4599 28.1803C7.16142 26.5493 7.64271 19.5248 7.86677 15.6379C8.22774 9.33303 10.4973 8.39867 16.3206 8.25346V8.25136ZM13.2088 10.3453C11.5823 10.5831 10.2733 11.7026 9.99528 13.3862C9.69031 15.2338 9.73803 21.2546 9.94549 23.2075C10.1529 25.1604 11.4413 26.463 13.3623 26.6735C15.4887 26.905 20.5569 26.905 22.6813 26.6735C24.8056 26.442 25.8927 25.0678 26.0939 22.995C26.3076 20.8 26.3097 16.1598 26.0939 13.9691C25.8782 11.7784 24.7434 10.5704 22.6564 10.3137C20.6565 10.0675 15.1796 10.0591 13.2088 10.3453Z" fill="#343232"/>
<path d="M13.2088 10.3454C15.1776 10.0592 20.6565 10.0676 22.6564 10.3139C24.7413 10.5706 25.8865 11.8838 26.0939 13.9692C26.3118 16.1599 26.3076 20.8002 26.0939 22.9951C25.8927 25.068 24.787 26.4443 22.6813 26.6737C20.5756 26.903 15.4867 26.9051 13.3623 26.6737C11.4413 26.4653 10.1529 25.1606 9.94549 23.2077C9.73803 21.2548 9.69239 15.234 9.99528 13.3863C10.2733 11.7049 11.5844 10.5832 13.2088 10.3454ZM22.4157 14.0218C23.8036 15.4297 25.9051 12.5067 23.6128 11.8459C22.3244 11.4734 21.6772 13.2748 22.4157 14.0218ZM17.138 13.2811C10.5741 14.3291 11.8769 24.9312 19.1109 23.6812C25.3014 22.6121 24.1231 12.1657 17.138 13.2811Z" fill="#B7B4B4"/>
<path d="M17.138 13.281C24.121 12.1656 25.3014 22.6099 19.1109 23.6811C11.8769 24.9311 10.5741 14.329 17.138 13.281ZM17.555 15.1665C12.7213 15.8863 14.7543 23.7021 19.447 21.5051C22.7663 19.9499 21.2457 14.6173 17.555 15.1665Z" fill="#343232"/>
<path d="M22.4157 14.0218C21.6772 13.2726 22.3244 11.4733 23.6127 11.8458C25.9051 12.5066 23.8036 15.4297 22.4157 14.0218Z" fill="#343232"/>
<path d="M17.555 15.1667C21.2457 14.6175 22.7663 19.9501 19.447 21.5052C14.7543 23.7023 12.7213 15.8864 17.555 15.1667Z" fill="#B7B4B4"/>
</g>
<defs>
<clipPath id="clip0_617_3588">
<rect width="36" height="37" fill="white"/>
</clipPath>
</defs>
</svg>
