<svg width="36" height="36" viewBox="0 0 36 36" fill="none" xmlns="http://www.w3.org/2000/svg">
<g clip-path="url(#clip0_617_3595)">
<path d="M16.0966 0.0861155C31.3438 -1.34674 41.4012 15.3466 32.8863 28.1541C25.8874 38.6809 9.93043 38.5864 2.99094 28.035C-4.40598 16.7877 2.65659 1.34859 16.0966 0.0861155ZM13.2022 8.4944C10.9868 6.4108 7.86479 9.93136 10.0925 11.9144C12.3284 13.9056 15.3458 10.5123 13.2022 8.4944ZM27.6022 26.0418V17.539C27.6022 17.0751 26.9745 15.6258 26.6668 15.1968C24.9827 12.832 21.434 13.146 19.6186 15.1845V13.9549H15.9325V26.0418H19.6166V18.5634C19.6166 17.4159 21.9571 16.5681 23.0012 17.4302C23.1366 17.5411 23.7109 18.4977 23.7109 18.5634V26.0418H27.6002H27.6022ZM13.6822 26.0418V14.2628L13.3745 13.9549H9.793V26.0418H13.6822Z" fill="#B7B4B4"/>
<path d="M27.602 26.0418H23.7128V18.5634C23.7128 18.4957 23.1385 17.5411 23.0031 17.4303C21.959 16.5702 19.6185 17.4159 19.6185 18.5634V26.0418H15.9344V13.9549H19.6185V15.1845C21.4359 13.1481 24.9826 12.8341 26.6687 15.1968C26.9764 15.6279 27.6041 17.0772 27.6041 17.5391V26.0418H27.602Z" fill="#343232"/>
<path d="M13.6821 26.0417H9.79282V13.9548H13.3744L13.6821 14.2628V26.0417Z" fill="#343232"/>
<path d="M13.202 8.49443C15.3456 10.5103 12.3282 13.9056 10.0923 11.9144C7.86461 9.93139 10.9867 6.41084 13.202 8.49443Z" fill="#343232"/>
</g>
<defs>
<clipPath id="clip0_617_3595">
<rect width="36" height="36" fill="white"/>
</clipPath>
</defs>
</svg>
