<svg width="23" height="30" viewBox="0 0 23 30" fill="none" xmlns="http://www.w3.org/2000/svg">
<g clip-path="url(#clip0_617_3582)">
<path d="M11.7313 16.2354C8.92241 16.2354 6.60919 14.0215 6.60919 11.2942C6.60919 8.56693 8.92241 6.35303 11.7313 6.35303C14.5402 6.35303 16.8534 8.56693 16.8534 11.2942C16.8534 14.0215 14.5402 16.2354 11.7313 16.2354ZM11.7313 7.54019C9.58333 7.54019 7.83189 9.20864 7.83189 11.2942C7.83189 13.3798 9.58333 15.0482 11.7313 15.0482C13.8793 15.0482 15.6307 13.3798 15.6307 11.2942C15.6307 9.20864 13.8793 7.54019 11.7313 7.54019Z" fill="#B7B4B4"/>
<path d="M11.6322 30C10.7399 30 9.8477 29.6791 9.12069 29.0695C8.39368 28.4278 7.66667 27.6898 6.9727 26.8235C3.50287 22.7487 0 16.139 0 11.3904C0 5.1016 5.15517 0 11.5 0C17.8448 0 23 5.1016 23 11.3904C23 15.754 20.125 22.4278 16.3247 26.8556C15.5647 27.754 14.7716 28.5241 13.9784 29.1658C13.2845 29.7112 12.4583 30 11.5991 30H11.6322ZM11.5 1.18717C5.84914 1.18717 1.2227 5.7754 1.2227 11.3904C1.2227 15.2727 4.0977 21.5936 7.89799 26.0856C8.55891 26.8877 9.25287 27.5936 9.91379 28.2032C10.8391 29.0053 12.227 29.0374 13.1853 28.2674C13.9124 27.6578 14.6394 26.9519 15.3664 26.1176C18.9353 21.9465 21.7443 15.4652 21.7443 11.3904C21.7773 5.7754 17.1839 1.18717 11.5 1.18717Z" fill="#B7B4B4"/>
</g>
<defs>
<clipPath id="clip0_617_3582">
<rect width="23" height="30" fill="white"/>
</clipPath>
</defs>
</svg>
