<svg width="82" height="82" viewBox="0 0 82 82" fill="none" xmlns="http://www.w3.org/2000/svg">
<g clip-path="url(#clip0_617_3373)">
<path d="M38.2026 81.9637H0V0H82V38.1855C79.8817 3.88646 37.7136 -12.3961 12.7036 11.4992C-12.8488 35.9134 3.14333 79.8005 38.2026 81.9637Z" fill="white"/>
<path d="M82 38.1856V43.9384L81.4747 47.8056C79.8689 57.4791 74.5282 66.7275 66.8919 72.8519C66.341 73.2939 63.9942 75.1219 63.503 75.2244C62.5933 75.4165 61.8716 74.6222 62.0189 73.7424C62.1129 73.1829 66.0484 70.4304 66.8193 69.7428C84.9277 53.5776 83.4905 24.6193 64.086 10.1604C44.122 -4.71496 14.9244 3.24374 5.51578 26.2059C-7.27109 57.4171 22.4582 88.2355 54.3101 77.2146C55.587 76.7725 58.3844 74.8763 58.9119 76.8516C59.2087 77.9641 58.0086 78.3143 57.2185 78.6837C54.9122 79.76 52.3049 80.4262 49.8428 81.0562L43.9576 81.9637C42.0677 81.8783 40.0796 82.079 38.2026 81.9637C3.14334 79.8006 -12.8488 35.9135 12.7036 11.4993C37.7136 -12.3982 79.8817 3.8865 82 38.1856Z" fill="black"/>
<path d="M54.6645 19.0138C53.7698 19.9598 53.0608 21.083 52.1917 22.0503C51.6664 22.6355 49.5054 24.8883 48.916 25.0122C48.3266 25.136 47.4981 24.4933 47.4596 23.8868C47.3913 22.8383 48.884 22.0525 49.5566 21.3328C51.2201 19.5562 52.6765 17.5745 53.9598 15.5074C54.3784 15.0761 55.0276 15.0718 55.5294 15.3558C56.0995 15.6783 57.2633 19.0629 57.5495 19.8872C61.6175 31.6298 63.093 47.0176 54.1947 56.9623C46.8553 65.1623 34.1475 65.647 26.1375 58.1602C24.8477 60.1035 24.1943 62.3649 23.6433 64.6113C22.975 65.4249 21.5485 65.0192 21.4246 63.9728C21.3072 62.9927 22.3963 60.0181 22.834 59.008C23.2397 58.0727 23.7736 57.1844 24.269 56.2939C21.9628 52.7427 20.878 48.9566 21.6275 44.6986C23.2931 35.2109 32.0547 31.8818 39.5949 28.147C40.4982 27.6985 43.0094 25.9795 43.8486 26.2315C44.6025 26.4578 44.8907 27.69 44.3676 28.2836C44.0814 28.6103 41.9695 29.6674 41.4079 29.9599C36.0352 32.7616 29.8766 34.6835 26.2485 39.8918C23.7779 43.4387 23.1052 47.8611 24.7025 51.9227C24.8413 52.275 25.6485 54.0667 25.9688 53.9962C26.2464 53.9343 27.2223 52.621 27.5148 52.3412C33.0669 47.0369 39.7636 43.9725 45.4054 38.2688C46.0844 37.5812 46.1848 36.7078 47.4895 37.1371C49.1594 37.688 47.3571 39.7444 46.7635 40.4235C41.2306 46.7379 32.6996 49.5225 27.5127 56.1359C35.623 63.6888 47.7138 62.4012 54.0047 53.2531C60.8124 43.3554 58.4848 29.6183 54.6709 19.0117L54.6645 19.0138Z" fill="black"/>
</g>
<defs>
<clipPath id="clip0_617_3373">
<rect width="82" height="82" fill="white"/>
</clipPath>
</defs>
</svg>
