<svg width="24" height="23" viewBox="0 0 24 23" fill="none" xmlns="http://www.w3.org/2000/svg">
<g clip-path="url(#clip0_617_3570)">
<path d="M17.76 23.0001C17.76 23.0001 17.5059 23.0001 17.3647 23.0001C15.5859 22.8326 14.3435 21.7719 13.1294 20.7391C12.96 20.5996 12.7906 20.46 12.6212 20.3205L12.48 20.2088C10.7012 18.7294 9.06353 17.1942 7.82117 15.994C5.50588 13.7331 3.10588 11.4163 1.21411 8.70881C0.762349 8.06682 -0.564709 6.16876 0.254114 4.24279C1.10117 2.2889 3.13411 0.809535 4.63058 0.111719C5.02588 -0.0836692 6.29647 6.86583e-05 6.63529 0.22337C7.36941 0.697884 8.01882 1.28405 8.61176 1.92604C9.51529 2.90298 9.85411 3.90784 9.57176 4.77313C9.34588 5.44303 8.83764 5.91754 8.32941 6.39206C7.79294 6.89449 7.34117 7.31318 7.34117 7.84351C7.34117 8.23429 7.68 8.59716 8.04706 8.96002C10.2776 11.193 12.5929 13.454 14.9082 15.6032C15.1059 15.7986 15.3318 15.994 15.5859 16.0777C16.1788 16.2452 16.8565 15.6032 17.1388 15.3241C17.2235 15.2404 17.28 15.1566 17.3647 15.1008C17.8447 14.5984 18.3529 14.0401 19.1153 13.8447C19.9341 13.6214 20.8094 13.9285 21.7412 14.6821C22.4753 15.2962 23.1247 15.994 23.6612 16.8035C23.8871 17.1384 24.0847 17.5292 24.0282 17.9758C23.9718 18.3107 23.8023 18.5899 23.6329 18.8411C22.1365 20.9345 20.2447 23.028 17.8165 23.028L17.76 23.0001ZM13.1576 19.6506C13.3271 19.7901 13.4965 19.9297 13.6659 20.0692C14.8235 21.0741 15.9247 21.9952 17.4212 22.1348C19.68 22.3581 21.4588 20.3205 22.8988 18.3107C23.0118 18.1433 23.1529 17.9758 23.1529 17.8083C23.1529 17.6129 23.04 17.3896 22.9271 17.1942C22.4471 16.4685 21.8541 15.7986 21.1765 15.2404C20.4706 14.6542 19.8212 14.4309 19.2847 14.5705C18.7765 14.71 18.3812 15.1287 17.9294 15.6032C17.8447 15.687 17.7882 15.7707 17.7035 15.8544C16.8847 16.6918 16.0659 17.0547 15.3318 16.8314C14.88 16.7197 14.5694 16.4127 14.3153 16.1615C12 13.9843 9.6847 11.7513 7.45411 9.49036C7.00235 9.01585 6.52235 8.51342 6.52235 7.8156C6.49411 6.9224 7.17176 6.28041 7.7647 5.75007C8.21647 5.33138 8.64 4.9406 8.78117 4.494C8.97882 3.90784 8.69647 3.21002 7.99058 2.45638C7.45411 1.87021 6.83294 1.33987 6.15529 0.893273C5.98588 0.837447 5.16706 0.781622 4.96941 0.837447C3.61411 1.45153 1.77882 2.79133 1.0447 4.494C0.592938 5.52677 0.875291 6.6991 1.92 8.17847C3.78353 10.8302 6.15529 13.119 8.44235 15.3241C9.65647 16.4964 11.2941 18.0316 13.0447 19.4831L13.1859 19.5947L13.1576 19.6506Z" fill="#B7B4B4"/>
<path d="M21.9388 9.82532C21.7129 9.82532 21.5153 9.62994 21.5153 9.40663C21.5153 4.66149 17.6188 0.809547 12.8188 0.809547C12.5929 0.809547 12.3953 0.614158 12.3953 0.390857C12.3953 0.167556 12.5929 -0.027832 12.8188 -0.027832C18.0706 -0.027832 22.3341 4.18697 22.3341 9.37872C22.3341 9.60202 22.1365 9.79741 21.9106 9.79741L21.9388 9.82532Z" fill="#B7B4B4"/>
<path d="M17.3929 9.76946C17.1671 9.76946 16.9694 9.57407 16.9694 9.35077C16.9694 7.11776 15.1341 5.30344 12.8753 5.30344C12.6494 5.30344 12.4518 5.10805 12.4518 4.88475C12.4518 4.66145 12.6494 4.46606 12.8753 4.46606C15.5859 4.46606 17.7882 6.64325 17.7882 9.32286C17.7882 9.54616 17.5906 9.74155 17.3647 9.74155L17.3929 9.76946Z" fill="#B7B4B4"/>
</g>
<defs>
<clipPath id="clip0_617_3570">
<rect width="24" height="23" fill="white"/>
</clipPath>
</defs>
</svg>
