<svg width="90" height="90" viewBox="0 0 90 90" fill="none" xmlns="http://www.w3.org/2000/svg">
<g clip-path="url(#clip0_617_3349)">
<path d="M90 0V90H0V0H90ZM40.1404 4.09709C7.67575 7.22275 -7.96768 46.9252 13.1519 71.8701C34.4427 97.0113 75.7005 88.1427 84.5288 56.4532C92.4814 27.9045 69.3938 1.28349 40.1404 4.09709Z" fill="white"/>
<path d="M40.6743 4.70319L40.6744 4.70318C69.5896 1.91714 92.3936 28.2276 84.5332 56.4274L84.5332 56.4274C75.8138 87.726 35.0539 96.4889 14.0195 71.6554C-6.84714 47.0091 8.6236 7.789 40.6743 4.70319ZM42.5794 6.89782L42.5794 6.89818C38.1346 7.21484 33.1242 8.45684 29.076 10.3355C28.321 10.6854 25.9297 12.0419 23.7621 13.457C22.6763 14.1659 21.6287 14.9011 20.8614 15.5427C20.4797 15.8618 20.1504 16.1717 19.9194 16.4544C19.8041 16.5955 19.7006 16.7451 19.6292 16.8987C19.5603 17.0472 19.4993 17.2467 19.5379 17.4647L19.5655 17.6205L19.6776 17.7321L73.1512 70.9237L73.5223 71.2929L73.8741 70.9052C96.9349 45.4878 76.9446 4.47558 42.5794 6.89782ZM17.4192 19.6967L17.0486 19.326L16.6958 19.7138C1.30513 36.6297 4.30181 62.7918 22.5203 76.3409C36.8303 86.9842 57.8587 86.1757 70.8872 73.8926L71.2619 73.5394L70.8978 73.1752L17.4192 19.6967Z" fill="black" stroke="black"/>
<path d="M16.5796 19.9419L70.0582 73.4204C57.2132 85.5305 36.461 86.3358 22.3326 75.8314C4.34874 62.4529 1.39925 36.6272 16.5796 19.9419ZM40.9155 51.6666L41.3534 50.6851C40.4222 47.8766 37.3721 45.8633 35.4695 43.548L36.6271 42.0078C35.8671 41.4843 34.8101 39.4962 33.8488 39.9945C33.3454 40.2512 26.1177 47.5293 25.9516 48.0678L27.4162 59.8356C25.9818 62.1409 19.1516 66.9728 19.1214 69.4391C19.0811 72.439 22.0608 70.2294 23.2789 69.268C24.6429 68.2009 29.2786 62.7952 30.1493 62.5687L41.2326 64.129C41.7258 64.2146 42.0379 63.9579 42.4305 63.7314C42.8936 63.4596 49.7539 56.6143 50.0006 56.1412C50.5039 55.1648 48.4302 54.0574 47.9872 53.3628L40.3971 60.5302L30.6627 59.3273C30.8489 54.4098 26.9331 49.0141 32.7968 46.2156C34.4125 47.3682 38.0969 52.2304 39.929 52.0995L40.9105 51.6616L40.9155 51.6666Z" fill="white"/>
<path d="M40.9155 51.6665L39.934 52.1044C38.0969 52.2353 34.4175 47.3731 32.8019 46.2205C26.9331 49.0241 30.854 54.4147 30.6677 59.3322L40.4021 60.5352L47.9923 53.3678C48.4352 54.0624 50.5089 55.1697 50.0056 56.1461C49.759 56.6243 42.8986 63.4645 42.4355 63.7363C42.048 63.9628 41.7309 64.2195 41.2376 64.1339L30.1543 62.5736C29.2836 62.8052 24.6429 68.2059 23.2839 69.2729C22.0608 70.2343 19.0862 72.4389 19.1264 69.4441C19.1617 66.9777 25.9868 62.1408 27.4213 59.8406L25.9566 48.0728C26.1177 47.5292 33.3505 40.2561 33.8538 39.9994C34.8152 39.5061 35.8722 41.4892 36.6322 42.0127L35.4745 43.5529C37.3771 45.8632 40.4273 47.8815 41.3584 50.6901L40.9205 51.6716L40.9155 51.6665Z" fill="black"/>
<path d="M58.0286 15.9856C59.1158 15.6836 59.7651 16.338 60.5352 16.9168C65.191 20.42 69.0616 26.6965 73.6922 30.4412C74.729 35.0215 70.6319 32.4998 68.7495 30.6929L62.9512 36.4912C63.5703 38.4944 70.2293 42.4053 68.5381 44.4337C66.6003 46.7541 64.5115 42.4758 63.5753 42.6419L55.21 50.5491L52.9702 48.3899L61.1392 39.8283L49.9754 28.6846L45.8229 33.2045L51.581 39.4407C52.1548 40.6034 50.6247 42.1788 49.3966 41.6302C47.8161 40.9306 43.8046 35.9929 43.1503 35.8771L41.6101 37.0348L39.4508 34.5081L47.3581 26.4347C47.5091 25.564 42.0933 22.247 46.7692 21.0944L53.5037 27.0588L59.302 21.2605C59.3926 20.7371 54.7469 16.9017 58.0236 15.9957L58.0286 15.9856ZM61.9244 23.5003L55.7586 29.6661L60.3288 34.2363L66.4946 28.0705L61.9244 23.5003Z" fill="black"/>
<path d="M61.9252 23.5045L55.7609 29.6688L60.3343 34.2422L66.4986 28.0779L61.9252 23.5045Z" fill="white"/>
</g>
<defs>
<clipPath id="clip0_617_3349">
<rect width="90" height="90" fill="white"/>
</clipPath>
</defs>
</svg>
