<svg width="37" height="37" viewBox="0 0 37 37" fill="none" xmlns="http://www.w3.org/2000/svg">
<g clip-path="url(#clip0_617_3600)">
<path d="M36.9496 17.0306C37.0189 17.7893 37.0147 19.0339 36.9496 19.7947C34.9546 42.8076 2.0223 42.4922 0.0902987 20.2998C-2.06431 -4.45847 34.6963 -7.76611 36.9496 17.0306ZM8.23832 28.7267C8.72342 29.0911 12.9066 27.0302 13.797 27.0494C14.1897 27.0579 15.6597 27.8635 16.3695 28.0276C27.2602 30.5659 33.2494 15.8797 24.3559 9.92509C15.3132 3.87244 4.75651 14.0703 10.08 23.4775L8.23832 28.7267Z" fill="#B7B4B4"/>
<path d="M8.23833 28.7266L10.08 23.4775C4.75652 14.0703 15.3153 3.87243 24.3559 9.92507C33.2473 15.8776 27.2602 30.5637 16.3695 28.0276C15.6597 27.8614 14.1897 27.0558 13.797 27.0494C12.9087 27.0302 8.72343 29.0911 8.23833 28.7266ZM10.9641 26.1756L14.007 25.1952C21.2227 29.9649 30.1729 21.8705 25.8784 14.1257C21.2164 5.7138 8.21103 10.7328 10.647 20.4362C10.8675 21.3121 11.7516 22.6271 11.7999 23.1109C11.8692 23.7971 10.8339 26.0434 10.9641 26.1756Z" fill="#343232"/>
<path d="M10.9641 26.1755C10.8339 26.0434 11.8713 23.7971 11.7999 23.1108C11.7516 22.6271 10.8654 21.3121 10.647 20.4362C8.21102 10.7328 21.2143 5.71374 25.8784 14.1256C30.1729 21.8726 21.2227 29.967 14.007 25.1952L10.9641 26.1755ZM14.8785 13.6696C14.2401 13.872 13.6899 15.4193 13.7067 16.0544C13.7571 17.9213 16.4556 20.9839 18.0243 21.8811C19.4923 22.7208 21.7414 23.5989 23.1274 22.2498C24.8452 20.5811 22.8439 19.7606 21.3445 19.362L19.9081 20.6131C18.4926 19.9843 17.1906 19.1383 16.4409 17.721C16.2939 17.12 17.2116 16.6533 17.2032 16.1119C17.2011 15.9819 16.3842 13.9317 16.3086 13.8379C16.0503 13.5225 15.2502 13.5502 14.8785 13.6674V13.6696Z" fill="#B7B4B4"/>
<path d="M14.8785 13.6697C15.2481 13.5525 16.0503 13.5248 16.3086 13.8402C16.3863 13.934 17.2011 15.9842 17.2032 16.1142C17.2137 16.6555 16.296 17.1223 16.4409 17.7233C17.1906 19.1405 18.4926 19.9866 19.9081 20.6153L21.3445 19.3643C22.8439 19.7628 24.8452 20.5834 23.1274 22.2521C21.7414 23.599 19.4923 22.721 18.0243 21.8834C16.4556 20.9862 13.7592 17.9236 13.7067 16.0567C13.6899 15.4194 14.2401 13.8722 14.8785 13.6718V13.6697Z" fill="#343232"/>
</g>
<defs>
<clipPath id="clip0_617_3600">
<rect width="37" height="37" fill="white"/>
</clipPath>
</defs>
</svg>
